<?xml version="1.0" encoding="UTF-8" standalone="no"?>
<svg
   xmlns:dc="http://purl.org/dc/elements/1.1/"
   xmlns:cc="http://creativecommons.org/ns#"
   xmlns:rdf="http://www.w3.org/1999/02/22-rdf-syntax-ns#"
   xmlns:svg="http://www.w3.org/2000/svg"
   xmlns="http://www.w3.org/2000/svg"
   xmlns:sodipodi="http://sodipodi.sourceforge.net/DTD/sodipodi-0.dtd"
   xmlns:inkscape="http://www.inkscape.org/namespaces/inkscape"
   xml:space="preserve"
   width="512.14075"
   height="512.14075"
   style="clip-rule:evenodd;fill-rule:evenodd;image-rendering:optimizeQuality;shape-rendering:geometricPrecision;text-rendering:geometricPrecision"
   viewBox="0 0 13550.985 13550.391"
   version="1.1"
   id="svg42"
   sodipodi:docname="GrabFood (2016).svg"
   inkscape:version="1.0.2 (e86c870879, 2021-01-15, custom)"><metadata
   id="metadata46"><rdf:RDF><cc:Work
       rdf:about=""><dc:format>image/svg+xml</dc:format><dc:type
         rdf:resource="http://purl.org/dc/dcmitype/StillImage" /><dc:title></dc:title></cc:Work></rdf:RDF></metadata><sodipodi:namedview
   pagecolor="#ffffff"
   bordercolor="#666666"
   borderopacity="1"
   objecttolerance="10"
   gridtolerance="10"
   guidetolerance="10"
   inkscape:pageopacity="0"
   inkscape:pageshadow="2"
   inkscape:window-width="1366"
   inkscape:window-height="715"
   id="namedview44"
   showgrid="false"
   units="px"
   inkscape:zoom="0.55766026"
   inkscape:cx="119.3548"
   inkscape:cy="315.03753"
   inkscape:window-x="-8"
   inkscape:window-y="-8"
   inkscape:window-maximized="1"
   inkscape:current-layer="svg42" />
 <defs
   id="defs4">
  <style
   type="text/css"
   id="style2">
   <![CDATA[
    .fil3 {fill:#00AE41}
    .fil0 {fill:#029835}
    .fil1 {fill:white}
    .fil2 {fill:white;fill-rule:nonzero}
   ]]>
  </style>
 </defs>
 <g
   id="Layer_x0020_1"
   transform="matrix(2.0304144,0,0,2.0304144,-4785.6867,-3914.7854)">
  <metadata
   id="CorelCorpID_0Corel-Layer" />
  <path
   class="fil0"
   d="m 5694,1928 c 1843,0 3337,1494 3337,3337 0,1843 -1494,3337 -3337,3337 -1843,0 -3337,-1494 -3337,-3337 0,-1843 1494,-3337 3337,-3337 z"
   id="path7" />
  <path
   class="fil1"
   d="M 4328,4002 H 7120 V 6062 H 4328 Z m 1874,1728 c -29,18 -56,6 -82,-21 l -435,-431 -439,435 c -27,28 -55,40 -86,19 -4,-3 -56,-56 -58,-59 -18,-29 -6,-56 21,-82 l 435,-438 -152,-151 c -155,101 -316,11 -420,-117 -45,-56 -103,-172 -123,-279 -12,-61 -11,-119 3,-167 19,-66 39,-86 106,-105 48,-14 106,-14 166,-3 107,21 223,78 279,123 129,104 219,265 117,420 l 150,151 139,-140 c -4,-67 -3,-142 5,-173 6,-27 22,-43 62,-80 l 396,-351 c 70,-73 120,-22 46,47 l -263,248 c -29,28 -49,55 -15,88 35,34 55,15 82,-13 l 272,-273 c 22,-23 49,-28 62,-12 15,13 11,40 -12,62 l -273,272 c -27,27 -47,48 -13,82 33,34 60,15 88,-15 l 248,-263 c 69,-74 120,-24 47,46 l -351,396 c -37,40 -52,55 -80,62 -32,7 -107,8 -173,5 l -141,140 430,434 c 28,27 40,55 19,86 -3,4 -56,56 -59,58 z M 4449,3929 c -20,0 -26,-26 0,-47 l 717,-667 h 558 558 l 716,667 c 26,21 20,46 0,47 H 5723 4448 Z m -12,-404 6,296 544,-509 h -323 c -140,-3 -238,75 -228,212 z m 2573,0 -6,296 -544,-509 h 323 c 140,-3 238,75 228,212 z m -1567,-76 h 194 48 319 c 30,0 54,24 54,54 v 81 c 0,4 0,7 -1,11 h -319 -154 -194 c -1,-4 -1,-7 -1,-11 v -81 c 0,-30 24,-54 54,-54 z"
   id="path9" />
  <path
   class="fil2"
   d="m 4058,6993 h 208 13 v 13 329 9 l -9,3 c -7,3 -14,5 -22,8 -8,2 -17,5 -27,7 v 0 c -19,5 -41,9 -64,12 v 0 c -12,2 -24,3 -36,4 -12,1 -24,1 -37,1 v 0 c -50,0 -94,-7 -132,-20 v 0 c -19,-7 -38,-15 -54,-25 -17,-10 -32,-22 -46,-36 v 0 c -10,-10 -19,-20 -27,-31 -8,-11 -16,-23 -22,-36 -7,-13 -12,-26 -18,-41 -5,-14 -9,-29 -13,-44 -4,-16 -6,-31 -8,-48 -2,-16 -3,-33 -3,-50 v 0 c 0,-22 2,-43 4,-63 3,-20 7,-39 13,-57 6,-18 12,-35 20,-51 8,-16 17,-31 27,-45 10,-14 22,-27 34,-38 12,-12 25,-22 39,-31 14,-9 29,-18 44,-25 15,-7 32,-13 49,-18 17,-5 34,-8 52,-11 18,-2 36,-4 55,-4 11,0 21,0 32,1 11,1 21,2 30,3 9,1 18,3 27,4 9,2 17,3 25,5 v 0 c 8,2 15,4 22,7 7,2 13,5 19,8 l 10,5 -3,10 -26,101 -4,15 -14,-7 c -5,-2 -9,-4 -14,-6 -5,-2 -10,-4 -16,-5 v 0 c -5,-2 -11,-3 -17,-4 -6,-1 -13,-2 -20,-3 v 0 c -7,-1 -15,-2 -23,-2 -8,0 -16,-1 -25,-1 -14,0 -27,1 -39,3 -12,2 -24,5 -35,9 -11,4 -21,9 -31,15 -10,6 -19,14 -27,22 -8,8 -16,18 -22,29 -7,11 -12,23 -17,36 v 0 c -5,13 -8,28 -11,43 -2,16 -4,33 -4,52 0,18 1,34 3,50 2,15 5,30 10,43 4,13 9,25 15,36 6,11 13,20 20,29 v 0 c 8,8 16,16 25,22 v 0 c 9,6 18,12 28,16 v 0 c 10,4 21,7 32,10 11,2 23,3 35,3 7,0 14,0 19,-1 6,0 12,-1 17,-2 v 0 c 5,-1 9,-2 13,-3 v 0 -133 h -78 -13 v -13 -96 -13 h 13 z m 578,-114 c 2,0 5,1 7,1 l 11,2 v 11 116 16 l -16,-3 c -2,0 -4,-1 -6,-1 -2,0 -4,-1 -7,-1 -3,0 -5,0 -7,0 -2,0 -5,0 -9,0 -8,0 -16,1 -23,3 -7,2 -14,4 -20,8 -6,3 -12,8 -16,13 -5,5 -9,12 -13,19 v 0 c -4,7 -6,16 -8,26 -2,10 -3,21 -3,33 v 0 237 13 h -13 -122 -13 v -13 -316 c 0,-17 0,-30 0,-40 0,-13 0,-25 -1,-37 v 0 c 0,-11 -1,-23 -1,-34 0,-11 -1,-21 -1,-32 l -1,-14 h 14 105 12 l 1,12 2,38 c 4,-6 8,-11 13,-16 v 0 c 7,-7 14,-14 21,-19 7,-6 15,-10 24,-14 v 0 c 8,-4 16,-7 24,-8 8,-2 17,-3 25,-3 2,0 5,0 8,0 v 0 c 3,0 5,0 8,0 2,0 5,1 7,1 z m 447,165 c 1,12 2,25 2,39 v 0 168 c 0,9 0,16 0,20 0,6 0,13 0,20 v 0 c 0,6 1,12 1,19 0,5 1,11 1,18 v 0 c 0,6 1,11 2,16 1,5 1,10 2,14 l 3,15 h -16 -110 -11 l -2,-11 -4,-23 c -6,5 -12,10 -18,14 v 0 c -7,5 -14,9 -22,12 -7,3 -15,6 -24,9 -8,2 -17,4 -25,5 -9,1 -18,2 -27,2 v 0 c -23,0 -44,-4 -62,-12 v 0 c -9,-4 -18,-9 -26,-14 -8,-6 -15,-12 -22,-19 v 0 c -7,-7 -12,-15 -17,-22 -5,-8 -9,-17 -13,-26 v 0 c -3,-9 -6,-18 -8,-28 -2,-10 -3,-20 -3,-30 v 0 c 0,-16 2,-31 5,-44 3,-14 8,-27 15,-39 v 0 c 7,-12 15,-23 24,-32 9,-10 20,-18 32,-26 12,-8 25,-14 39,-20 14,-6 29,-10 45,-14 16,-4 32,-6 50,-8 13,-1 27,-2 40,-3 0,-2 0,-4 -1,-7 -1,-6 -2,-11 -4,-17 v 0 c -2,-5 -4,-9 -7,-12 -3,-4 -7,-7 -12,-10 v 0 c -5,-3 -11,-5 -18,-6 -8,-2 -17,-2 -27,-2 -10,0 -20,1 -29,2 -10,1 -19,3 -28,6 v 0 c -9,3 -18,6 -26,9 -8,4 -16,7 -23,12 l -15,9 -5,-17 -23,-79 -3,-10 9,-5 c 5,-3 12,-7 19,-10 7,-3 14,-6 22,-9 8,-3 17,-6 26,-8 9,-2 19,-5 30,-7 11,-2 22,-4 33,-5 11,-1 23,-2 35,-2 v 0 c 19,0 36,1 51,4 16,3 30,7 43,13 v 0 c 13,6 24,12 34,20 10,8 19,17 27,26 7,10 14,20 19,31 5,11 9,23 12,35 v 0 c 3,12 5,24 7,37 z m -145,176 c 1,-5 2,-11 2,-17 v 0 -53 c -3,0 -7,0 -10,1 v 0 c -8,1 -16,1 -24,3 v 0 c -7,1 -14,3 -21,5 -7,2 -13,4 -19,7 -5,3 -10,6 -15,9 -4,3 -8,7 -11,12 v 0 c -3,4 -5,9 -7,14 -2,6 -3,12 -3,19 0,6 1,12 2,17 1,5 3,9 5,12 v 0 c 2,4 4,7 7,9 3,2 5,4 8,6 v 0 c 7,3 14,5 23,5 3,0 6,0 9,-1 3,-1 7,-1 11,-3 v 0 c 4,-1 7,-3 10,-4 4,-2 7,-4 10,-7 3,-2 6,-5 8,-8 3,-3 5,-7 7,-12 v 0 c 2,-4 4,-9 5,-14 z m 399,-523 v 224 c 1,-1 2,-2 2,-2 9,-9 20,-16 32,-22 v 0 c 12,-6 25,-11 38,-14 13,-3 28,-5 44,-5 v 0 c 14,0 27,2 39,5 13,3 25,8 36,14 v 0 c 11,6 22,13 31,22 10,8 18,18 26,29 v 0 c 8,11 15,23 21,36 v 0 c 6,13 11,27 15,41 v 0 c 4,15 7,30 9,46 2,16 3,33 3,51 v 0 c 0,17 -1,34 -3,49 -2,15 -4,30 -8,44 -4,14 -8,27 -13,39 -5,12 -11,24 -17,34 v 0 c -6,10 -13,20 -21,29 -8,9 -16,17 -24,24 -9,7 -17,13 -27,19 -9,5 -19,10 -29,13 -10,3 -20,6 -30,8 v 0 c -10,2 -20,3 -30,3 v 0 c -14,0 -27,-1 -40,-4 -13,-3 -25,-8 -37,-14 v 0 c -12,-6 -22,-15 -32,-25 -2,-3 -5,-5 -7,-8 l -3,30 -1,12 h -12 -104 -14 l 1,-14 c 0,-6 1,-12 1,-18 0,-7 1,-13 1,-20 v 0 l 1,-22 1,-23 c 0,-14 0,-30 0,-48 v -531 -13 h 13 122 13 v 13 z m 2,371 c -1,6 -2,13 -2,19 v 0 90 0 c 0,8 1,15 2,22 2,7 4,13 7,20 v 0 c 3,6 6,12 11,16 4,5 9,9 14,13 5,4 11,6 16,8 6,2 12,3 19,3 8,0 16,-1 23,-4 7,-2 13,-6 19,-11 v 0 c 6,-5 11,-11 16,-18 5,-7 9,-16 12,-26 v 0 c 3,-10 6,-21 8,-33 2,-12 3,-25 3,-40 0,-10 0,-19 -1,-27 -1,-9 -2,-17 -4,-25 -2,-8 -4,-15 -7,-22 -3,-7 -6,-13 -9,-18 -3,-5 -7,-10 -11,-14 -4,-4 -9,-8 -14,-11 v 0 c -5,-3 -10,-5 -15,-6 -6,-2 -12,-2 -19,-2 v 0 c -4,0 -9,0 -13,1 -4,1 -8,2 -12,4 v 0 c -4,2 -8,4 -12,7 v 0 c -4,3 -7,6 -11,10 -3,4 -6,8 -9,12 -3,5 -5,10 -7,15 -2,5 -3,11 -4,17 z m 533,41 v 251 13 h -13 -122 -13 v -13 -634 -13 h 13 340 13 v 13 102 13 h -13 -204 v 141 h 190 13 v 13 100 13 h -13 -190 z m 422,-214 v 0 c 28,-11 59,-17 92,-17 v 0 c 17,0 33,2 48,5 15,3 30,8 44,14 v 0 c 14,6 27,13 38,22 12,9 23,19 32,30 10,11 18,23 26,37 7,13 14,27 19,42 v 0 c 5,15 9,31 11,48 2,16 4,34 4,52 0,18 -1,35 -3,51 -2,16 -5,31 -10,45 v 0 c -4,14 -9,27 -15,39 -6,12 -13,23 -20,34 v 0 c -8,10 -16,19 -24,28 -9,8 -18,16 -28,22 v 0 c -10,6 -20,12 -30,17 -10,5 -21,9 -32,12 v 0 c -11,3 -22,5 -32,7 -11,1 -22,2 -33,2 v 0 c -16,0 -32,-1 -47,-4 -15,-3 -30,-7 -43,-13 v 0 c -14,-6 -27,-13 -39,-21 -12,-8 -23,-18 -33,-29 -10,-11 -19,-23 -27,-36 -8,-13 -14,-27 -20,-43 v 0 c -5,-15 -10,-32 -12,-49 v 0 c -3,-17 -4,-35 -4,-55 0,-20 2,-39 4,-57 3,-18 7,-35 13,-51 6,-16 13,-30 21,-44 8,-14 17,-26 28,-37 10,-11 22,-21 34,-29 v 0 c 12,-8 25,-15 39,-21 z m 159,290 c 4,-17 5,-35 5,-55 0,-9 0,-18 -1,-26 -1,-8 -2,-17 -4,-25 -2,-8 -4,-16 -6,-23 -2,-7 -5,-14 -8,-21 v 0 c -3,-6 -7,-12 -11,-17 -4,-5 -8,-9 -13,-13 v 0 c -4,-3 -9,-6 -15,-8 -5,-2 -11,-3 -18,-3 -6,0 -11,1 -16,2 -5,1 -9,3 -13,5 -4,2 -8,5 -12,9 -4,3 -7,7 -10,11 v 0 c -3,4 -6,9 -9,14 -3,5 -5,11 -7,16 v 0 c -2,6 -4,12 -5,18 -1,6 -3,13 -4,20 -1,7 -2,14 -2,20 v 0 c 0,7 -1,13 -1,20 0,10 0,20 1,29 1,9 2,18 4,26 v 0 c 2,8 4,16 7,24 3,7 6,14 9,20 v 0 c 3,6 7,11 11,16 4,5 8,9 13,12 v 0 c 5,3 9,5 15,7 v 0 c 5,2 11,2 17,3 6,0 11,-1 16,-3 5,-2 10,-4 14,-7 v 0 c 5,-3 9,-7 13,-12 4,-5 8,-10 11,-16 v 0 c 3,-6 6,-13 9,-21 3,-7 5,-15 7,-24 z m 351,-290 v 0 c 28,-11 59,-17 92,-17 v 0 c 17,0 33,2 48,5 15,3 30,8 44,14 v 0 c 14,6 27,13 38,22 12,9 23,19 32,30 10,11 18,23 26,37 7,13 14,27 19,42 v 0 c 5,15 9,31 11,48 2,16 4,34 4,52 0,18 -1,35 -3,51 -2,16 -5,31 -10,45 v 0 c -4,14 -9,27 -15,39 -6,12 -13,23 -20,34 v 0 c -8,10 -16,19 -24,28 -9,8 -18,16 -28,22 v 0 c -10,6 -20,12 -30,17 -10,5 -21,9 -32,12 v 0 c -11,3 -22,5 -32,7 -11,1 -22,2 -33,2 v 0 c -16,0 -32,-1 -47,-4 -15,-3 -30,-7 -43,-13 v 0 c -14,-6 -27,-13 -39,-21 -12,-8 -23,-18 -33,-29 -10,-11 -19,-23 -27,-36 -8,-13 -14,-27 -20,-43 v 0 c -5,-15 -10,-32 -12,-49 v 0 c -3,-17 -4,-35 -4,-55 0,-20 2,-39 4,-57 3,-18 7,-35 13,-51 6,-16 13,-30 21,-44 8,-14 17,-26 28,-37 10,-11 22,-21 34,-29 v 0 c 12,-8 25,-15 39,-21 z m 159,290 c 4,-17 5,-35 5,-55 0,-9 0,-18 -1,-26 -1,-8 -2,-17 -4,-25 -2,-8 -4,-16 -6,-23 -2,-7 -5,-14 -8,-21 v 0 c -3,-6 -7,-12 -11,-17 -4,-5 -8,-9 -13,-13 v 0 c -4,-3 -9,-6 -15,-8 -5,-2 -11,-3 -18,-3 -6,0 -11,1 -16,2 -5,1 -9,3 -13,5 -4,2 -8,5 -12,9 -4,3 -7,7 -10,11 v 0 c -3,4 -6,9 -9,14 -3,5 -5,11 -7,16 v 0 c -2,6 -4,12 -5,18 -1,6 -3,13 -4,20 -1,7 -2,14 -2,20 v 0 c 0,7 -1,13 -1,20 0,10 0,20 1,29 1,9 2,18 4,26 v 0 c 2,8 4,16 7,24 3,7 6,14 9,20 v 0 c 3,6 7,11 11,16 4,5 8,9 13,12 v 0 c 5,3 9,5 15,7 v 0 c 5,2 11,2 17,3 6,0 11,-1 16,-3 5,-2 10,-4 14,-7 v 0 c 5,-3 9,-7 13,-12 4,-5 8,-10 11,-16 v 0 c 3,-6 6,-13 9,-21 3,-7 5,-15 7,-24 z m 525,-500 h 122 13 v 13 532 c 0,11 0,19 0,23 0,8 0,15 0,23 v 0 c 0,8 0,15 1,23 0,7 0,15 1,22 v 0 c 1,14 1,27 2,39 l 1,14 h -14 -107 -12 l -1,-12 -3,-32 c -5,5 -10,10 -15,15 v 0 c -7,6 -15,11 -23,16 -8,5 -17,9 -26,12 -9,3 -18,6 -28,7 -9,2 -19,2 -30,3 v 0 c -14,0 -28,-2 -40,-5 -13,-3 -25,-8 -37,-14 v 0 c -12,-6 -23,-13 -33,-22 -10,-9 -19,-19 -28,-30 v 0 c -8,-11 -16,-23 -22,-36 -6,-13 -12,-27 -17,-42 v 0 c -5,-15 -8,-31 -10,-47 -2,-16 -3,-34 -4,-52 v 0 c 0,-20 1,-39 4,-57 3,-18 7,-35 12,-51 v 0 c 5,-16 11,-30 18,-43 7,-14 15,-26 25,-37 v 0 c 9,-11 19,-21 30,-29 11,-8 22,-15 34,-21 v 0 c 12,-6 24,-10 37,-13 13,-3 26,-4 39,-4 v 0 c 10,0 19,1 27,2 9,1 17,3 25,6 v 0 c 8,2 15,5 22,9 7,4 13,8 19,12 v 0 c 2,1 4,3 5,4 v -214 -13 h 13 z m -15,511 c 1,-7 2,-15 2,-23 v 0 -84 0 c 0,-8 -1,-15 -2,-22 -1,-6 -2,-12 -4,-18 v 0 c -2,-5 -4,-10 -7,-15 -3,-4 -5,-8 -9,-12 v 0 c -3,-4 -7,-7 -10,-9 -4,-3 -7,-5 -11,-6 -8,-3 -16,-5 -25,-5 v 0 c -7,0 -13,1 -19,2 -5,2 -11,4 -15,7 v 0 c -5,3 -10,7 -14,11 -4,4 -8,10 -11,15 v 0 c -4,6 -7,12 -9,19 -3,7 -5,15 -7,23 v 0 c -2,8 -3,17 -4,25 -1,9 -1,18 -1,28 0,13 1,26 3,37 2,11 4,22 8,31 v 0 c 3,9 7,18 12,25 5,7 10,13 16,18 v 0 c 6,5 12,8 19,11 v 0 c 7,2 14,4 23,4 v 0 c 4,0 8,0 12,-1 4,-1 8,-2 12,-3 v 0 c 4,-1 8,-3 12,-6 4,-2 7,-5 11,-8 v 0 c 3,-3 6,-7 9,-11 3,-4 5,-9 8,-15 v 0 c 2,-5 4,-12 5,-18 z"
   id="path11" />
  
  
  
  
  
  
  
  
  
  
  
  
  
  
 </g>
</svg>
